<svg width="14" height="16" viewBox="0 0 14 16" fill="none" xmlns="http://www.w3.org/2000/svg">
<path d="M7 11.0812C5.45588 11.0812 4.11765 9.75763 4.11765 7.99292C4.11765 6.33851 5.35294 4.90469 7 4.90469C8.54411 4.90469 9.88235 6.22821 9.88235 7.99292C9.88235 9.64733 8.54411 11.0812 7 11.0812Z" fill="white"/>
<path fill-rule="evenodd" clip-rule="evenodd" d="M10.5 0.49292H3.5C2.67647 0.603214 2.26471 0.713508 1.95588 0.823803C1.54412 0.934097 1.2353 1.15469 0.926472 1.48557C0.682104 1.74739 0.566644 2.00921 0.427089 2.32568C0.390309 2.40909 0.351754 2.49651 0.308823 2.58851C0.292898 2.6397 0.27451 2.69352 0.2548 2.75121C0.147108 3.06645 0 3.49707 0 4.24292V11.7429C0.102942 12.6253 0.205881 13.0665 0.308823 13.3973C0.411764 13.8385 0.617649 14.1694 0.926472 14.5003C1.17084 14.7621 1.41521 14.8858 1.71058 15.0353C1.78849 15.0748 1.86995 15.116 1.95588 15.162C2.00366 15.1791 2.05389 15.1988 2.10774 15.2199C2.40196 15.3353 2.80387 15.4929 3.5 15.4929H10.5C11.3235 15.3826 11.7353 15.2723 12.0441 15.162C12.4559 15.0517 12.7647 14.8312 13.0735 14.5003C13.3179 14.2385 13.4333 13.9766 13.5729 13.6602C13.6097 13.5767 13.6482 13.4894 13.6912 13.3973C13.7071 13.3461 13.7255 13.2923 13.7452 13.2346C13.8529 12.9194 14 12.4888 14 11.7429V4.24292C13.8971 3.36057 13.7941 2.91939 13.6912 2.58851C13.5882 2.14733 13.3824 1.81645 13.0735 1.48557C12.8292 1.22374 12.5848 1.10004 12.2894 0.950515C12.2116 0.911137 12.1299 0.869763 12.0441 0.823803C11.9963 0.806741 11.9461 0.787038 11.8923 0.765923C11.598 0.650538 11.1961 0.49292 10.5 0.49292ZM7 3.25027C4.52941 3.25027 2.57353 5.34586 2.57353 7.99292C2.57353 10.64 4.52941 12.7356 7 12.7356C9.47058 12.7356 11.4265 10.64 11.4265 7.99292C11.4265 5.34586 9.47058 3.25027 7 3.25027ZM12.5588 3.13998C12.5588 3.74912 12.0979 4.24292 11.5294 4.24292C10.9609 4.24292 10.5 3.74912 10.5 3.13998C10.5 2.53084 10.9609 2.03704 11.5294 2.03704C12.0979 2.03704 12.5588 2.53084 12.5588 3.13998Z" fill="white"/>
</svg>
