<svg width="21" height="20" viewBox="0 0 21 20" fill="none" xmlns="http://www.w3.org/2000/svg">
<path d="M16.2915 19.875C16.125 19.8757 15.9606 19.8364 15.8124 19.7605L10.4999 16.9792L5.18738 19.7605C5.01487 19.8512 4.82037 19.8917 4.626 19.8773C4.43162 19.863 4.24516 19.7944 4.08782 19.6794C3.93048 19.5644 3.80856 19.4075 3.73593 19.2267C3.6633 19.0458 3.64287 18.8482 3.67696 18.6563L4.71863 12.7917L0.426958 8.62505C0.29306 8.49143 0.198074 8.32387 0.152195 8.14035C0.106316 7.95684 0.111276 7.76429 0.166541 7.58338C0.226916 7.39825 0.337975 7.23375 0.487115 7.10855C0.636254 6.98334 0.817503 6.90245 1.01029 6.87505L6.94779 6.01047L9.56238 0.666716C9.64767 0.4906 9.78085 0.342073 9.94666 0.238147C10.1125 0.134222 10.3042 0.0791016 10.4999 0.0791016C10.6956 0.0791016 10.8873 0.134222 11.0531 0.238147C11.2189 0.342073 11.3521 0.4906 11.4374 0.666716L14.0832 6.00005L20.0207 6.86463C20.2135 6.89203 20.3947 6.97293 20.5439 7.09813C20.693 7.22333 20.8041 7.38783 20.8645 7.57297C20.9197 7.75388 20.9247 7.94642 20.8788 8.12994C20.8329 8.31345 20.7379 8.48101 20.604 8.61463L16.3124 12.7813L17.354 18.6459C17.3912 18.8412 17.3718 19.043 17.2979 19.2276C17.2241 19.4122 17.099 19.5718 16.9374 19.6875C16.7488 19.8197 16.5216 19.8857 16.2915 19.875Z" fill="#F2C94C"/>
</svg>
