<svg width="20" height="12" viewBox="0 0 20 12" fill="none" xmlns="http://www.w3.org/2000/svg">
<path d="M16.5958 6.85681C16.2725 6.44848 16.365 6.26681 16.5958 5.90181C16.6 5.89764 19.2692 2.20931 19.5442 0.958476L19.5458 0.957642C19.6825 0.501809 19.5458 0.166809 18.885 0.166809H16.6983C16.1417 0.166809 15.885 0.454309 15.7475 0.775976C15.7475 0.775976 14.6342 3.44098 13.0592 5.16848C12.5508 5.66764 12.3158 5.82764 12.0383 5.82764C11.9017 5.82764 11.6892 5.66764 11.6892 5.21181V0.957642C11.6892 0.410976 11.5333 0.166809 11.0725 0.166809H7.63417C7.285 0.166809 7.0775 0.421809 7.0775 0.659309C7.0775 1.17764 7.865 1.29681 7.94667 2.75514V5.91931C7.94667 6.61264 7.82083 6.74014 7.54167 6.74014C6.79833 6.74014 4.99417 4.06431 3.925 1.00181C3.70917 0.407642 3.49833 0.167642 2.9375 0.167642H0.75C0.125833 0.167642 0 0.455142 0 0.776809C0 1.34514 0.743333 4.17098 3.45667 7.90431C5.265 10.4526 7.81167 11.8335 10.1283 11.8335C11.5208 11.8335 11.6908 11.5268 11.6908 10.9993C11.6908 8.56431 11.565 8.33431 12.2625 8.33431C12.5858 8.33431 13.1425 8.49431 14.4425 9.72348C15.9283 11.181 16.1725 11.8335 17.0042 11.8335H19.1908C19.8142 11.8335 20.13 11.5268 19.9483 10.9218C19.5325 9.64931 16.7225 7.03181 16.5958 6.85681Z" fill="#17181C"/>
</svg>
