<svg width="26" height="25" viewBox="0 0 26 25" fill="none" xmlns="http://www.w3.org/2000/svg">
<path d="M4.04018 2.02921C4.34702 1.72237 4.34702 1.22489 4.04017 0.918046C3.73333 0.611207 3.23585 0.61121 2.92901 0.918052L4.04018 2.02921ZM25.3967 17.5489C25.596 17.1635 25.4452 16.6894 25.0598 16.49L18.7788 13.2413C18.3934 13.0419 17.9193 13.1928 17.7199 13.5782C17.5206 13.9636 17.6714 14.4377 18.0569 14.637L23.6399 17.5248L20.7522 23.1079C20.5528 23.4934 20.7036 23.9674 21.0891 24.1668C21.4745 24.3661 21.9486 24.2153 22.1479 23.8299L25.3967 17.5489ZM2.92901 0.918052C0.802882 3.0442 -0.0262971 5.58803 0.273614 8.10994C0.571014 10.6107 1.96733 13.0119 4.14383 14.9293C8.50447 18.7708 16.0697 20.7581 24.937 17.9366L24.4606 16.4392C16.0423 19.1178 9.07192 17.1765 5.18259 13.7501C3.2341 12.0336 2.07684 9.96598 1.83405 7.92437C1.59376 5.90387 2.23777 3.83164 4.04018 2.02921L2.92901 0.918052Z" fill="#DE131E"/>
</svg>
