<svg width="16" height="16" viewBox="0 0 16 16" fill="none" xmlns="http://www.w3.org/2000/svg">
<path d="M13.4432 15.4929C11.6854 15.4929 9.99764 15.1588 8.37993 14.4905C6.76168 13.8228 5.33014 12.8963 4.08529 11.7109C2.83992 10.526 1.84782 9.12539 1.10901 7.50901C0.369671 5.89321 0 4.1372 0 2.24098C0 1.60891 0.162996 1.07739 0.488989 0.646437C0.815514 0.215479 1.2784 0 1.87765 0H3.73533C4.09488 0 4.37453 0.111187 4.57428 0.333562C4.77403 0.55651 4.91386 0.876281 4.99376 1.29287C5.07366 1.72383 5.16368 2.16915 5.26382 2.62884C5.36343 3.08853 5.47982 3.49794 5.61298 3.85707C5.73283 4.15874 5.76959 4.44231 5.72325 4.70778C5.67637 4.97383 5.53974 5.22896 5.31336 5.47317L3.75531 7.11081C4.39451 8.11637 5.28353 9.08948 6.42237 10.0301C7.56068 10.9713 8.66916 11.6143 9.74782 11.9591L10.6667 9.95513C10.7865 9.69655 10.9397 9.52072 11.1261 9.42764C11.3125 9.33397 11.5722 9.30151 11.9051 9.33024C12.2514 9.35897 12.5944 9.37333 12.9342 9.37333C13.2735 9.37333 13.6563 9.35897 14.0824 9.33024C14.4819 9.30151 14.8183 9.41643 15.0915 9.67501C15.3643 9.93358 15.5472 10.3502 15.6405 10.9248L15.9601 12.8641C15.9601 12.8641 15.9734 12.9862 16 13.2304C16 13.8337 15.7704 14.3618 15.3113 14.8146C14.8516 15.2668 14.2289 15.4929 13.4432 15.4929Z" fill="#DE131E"/>
</svg>
